name Walk8.mot
datacolumns 19
datarows 27
range 1.85000000 1.98000000
endheader

                time	   L_ground_force_vx	   L_ground_force_vy	   L_ground_force_vz	   L_ground_force_px	   L_ground_force_py	   L_ground_force_pz	   R_ground_force_vx	   R_ground_force_vy	   R_ground_force_vz	   R_ground_force_px	   R_ground_force_py	   R_ground_force_pz	   L_ground_torque_x	   L_ground_torque_y	   L_ground_torque_z	   R_ground_torque_x	   R_ground_torque_y	   R_ground_torque_z	
          1.85000000	         -2.26505219	        513.14002805	         16.51428343	          0.44827205	          0.00000000	          0.21759470	          0.00000000	         -0.00000000	         -0.00000000	          0.00000000	          0.00000000	         -0.00000000	          0.00000000	         -2.39817586	          0.00000000	          0.00000000	          0.00000000	          0.00000000	
          1.85500000	         -0.55706727	        510.49379401	         17.71345380	          0.45060962	          0.00000000	          0.21719591	          0.00000000	          0.00000000	          0.00000000	         -0.00000000	          0.00000000	          0.00000000	          0.00000000	         -2.47104483	          0.00000000	          0.00000000	         -0.00000000	          0.00000000	
          1.86000000	          0.92204439	        509.04763429	         19.06205612	          0.45315096	          0.00000000	          0.21676206	          0.00000000	          0.00000000	          0.00000000	         -0.00000000	          0.00000000	          0.00000000	          0.00000000	         -2.50057476	          0.00000000	          0.00000000	         -0.00000000	          0.00000000	
          1.86500000	          2.28711933	        509.04679165	         20.32396771	          0.45560291	          0.00000000	          0.21613335	         -0.00000000	          0.00000000	          0.00000000	         -0.00000000	          0.00000000	          0.00000000	          0.00000000	         -2.48956278	          0.00000000	          0.00000000	         -0.00000000	          0.00000000	
          1.87000000	          3.77549652	        511.03342506	         21.52734680	          0.45794140	          0.00000000	          0.21534104	         -0.00000000	         -0.00000000	         -0.00000000	          0.00000000	          0.00000000	         -0.00000000	          0.00000000	         -2.44802738	          0.00000000	          0.00000000	          0.00000000	          0.00000000	
          1.87500000	          5.58270275	        514.90235134	         22.64223891	          0.46018378	          0.00000000	          0.21461529	         -0.00000000	         -0.00000000	         -0.00000000	          0.00000000	          0.00000000	         -0.00000000	          0.00000000	         -2.39023184	          0.00000000	          0.00000000	          0.00000000	          0.00000000	
          1.88000000	          7.78618812	        520.24378445	         23.48294269	          0.46240598	          0.00000000	          0.21393855	          0.00000000	         -0.00000000	          0.00000000	          0.00000000	          0.00000000	         -0.00000000	          0.00000000	         -2.32446874	          0.00000000	          0.00000000	          0.00000000	          0.00000000	
          1.88500000	         10.25243652	        527.39080756	         24.11514518	          0.46435439	          0.00000000	          0.21333426	          0.00000000	          0.00000000	          0.00000000	         -0.00000000	          0.00000000	          0.00000000	          0.00000000	         -2.26372117	          0.00000000	          0.00000000	         -0.00000000	          0.00000000	
          1.89000000	         12.86113544	        536.62561981	         24.56953091	          0.46621716	          0.00000000	          0.21279163	          0.00000000	          0.00000000	          0.00000000	         -0.00000000	          0.00000000	          0.00000000	          0.00000000	         -2.22223743	          0.00000000	          0.00000000	         -0.00000000	          0.00000000	
          1.89500000	         15.52211429	        547.39882699	         24.65173931	          0.46845597	          0.00000000	          0.21216118	         -0.00000000	         -0.00000000	         -0.00000000	         -0.00000000	          0.00000000	          0.00000000	          0.00000000	         -2.18242429	          0.00000000	          0.00000000	         -0.00000000	          0.00000000	
          1.90000000	         18.00048128	        559.25193070	         24.49494073	          0.47086979	          0.00000000	          0.21144937	         -0.00000000	         -0.00000000	         -0.00000000	          0.00000000	          0.00000000	         -0.00000000	          0.00000000	         -2.14012878	          0.00000000	          0.00000000	          0.00000000	          0.00000000	
          1.90500000	         20.16959924	        571.70444286	         24.22343854	          0.47322646	          0.00000000	          0.21079330	          0.00000000	         -0.00000000	         -0.00000000	          0.00000000	          0.00000000	         -0.00000000	          0.00000000	         -2.15362097	          0.00000000	          0.00000000	          0.00000000	          0.00000000	
          1.91000000	         22.04936484	        583.89115862	         23.73643826	          0.47569658	          0.00000000	          0.21002499	          0.00000000	          0.00000000	          0.00000000	         -0.00000000	          0.00000000	         -0.00000000	          0.00000000	         -2.19899703	          0.00000000	          0.00000000	          0.00000000	          0.00000000	
          1.91500000	         23.52044582	        595.53885492	         23.18624232	          0.47829509	          0.00000000	          0.20944297	          0.00000000	          0.00000000	          0.00000000	         -0.00000000	          0.00000000	          0.00000000	          0.00000000	         -2.23788500	          0.00000000	          0.00000000	         -0.00000000	          0.00000000	
          1.92000000	         24.65106936	        607.24233834	         22.61076739	          0.48105223	          0.00000000	          0.20902754	         -0.00000000	          0.00000000	          0.00000000	         -0.00000000	          0.00000000	          0.00000000	          0.00000000	         -2.30353951	          0.00000000	          0.00000000	         -0.00000000	          0.00000000	
          1.92500000	         25.48802822	        618.98390889	         21.99510418	          0.48406687	          0.00000000	          0.20856194	         -0.00000000	         -0.00000000	         -0.00000000	          0.00000000	          0.00000000	         -0.00000000	          0.00000000	         -2.32835095	          0.00000000	          0.00000000	          0.00000000	          0.00000000	
          1.93000000	         26.13305537	        630.43246803	         21.47044707	          0.48739509	          0.00000000	          0.20812934	         -0.00000000	         -0.00000000	         -0.00000000	          0.00000000	          0.00000000	         -0.00000000	          0.00000000	         -2.28877910	          0.00000000	          0.00000000	          0.00000000	          0.00000000	
          1.93500000	         26.77653124	        641.25150454	         21.19609780	          0.49088047	          0.00000000	          0.20765574	          0.00000000	         -0.00000000	          0.00000000	          0.00000000	          0.00000000	         -0.00000000	          0.00000000	         -2.23683859	          0.00000000	          0.00000000	          0.00000000	          0.00000000	
          1.94000000	         27.37937852	        651.41380564	         21.36484804	          0.49422389	          0.00000000	          0.20732639	          0.00000000	          0.00000000	          0.00000000	         -0.00000000	          0.00000000	          0.00000000	          0.00000000	         -2.16585997	          0.00000000	          0.00000000	         -0.00000000	          0.00000000	
          1.94500000	         27.84876953	        660.96659846	         21.91231600	          0.49757891	          0.00000000	          0.20708139	          0.00000000	          0.00000000	          0.00000000	         -0.00000000	          0.00000000	          0.00000000	          0.00000000	         -2.10785004	          0.00000000	          0.00000000	         -0.00000000	          0.00000000	
          1.95000000	         28.23082180	        670.03097273	         22.66891096	          0.50125874	          0.00000000	          0.20672827	         -0.00000000	          0.00000000	         -0.00000000	         -0.00000000	          0.00000000	          0.00000000	          0.00000000	         -2.05240879	          0.00000000	          0.00000000	         -0.00000000	          0.00000000	
          1.95500000	         28.44415499	        678.24578592	         23.63678491	          0.50497271	          0.00000000	          0.20632178	         -0.00000000	         -0.00000000	         -0.00000000	          0.00000000	          0.00000000	         -0.00000000	          0.00000000	         -1.91779576	          0.00000000	          0.00000000	          0.00000000	          0.00000000	
          1.96000000	         28.50079134	        685.28030035	         24.71403991	          0.50887818	          0.00000000	          0.20594293	          0.00000000	         -0.00000000	         -0.00000000	          0.00000000	          0.00000000	         -0.00000000	          0.00000000	         -1.70769456	          0.00000000	          0.00000000	          0.00000000	          0.00000000	
          1.96500000	         28.63505336	        691.61021871	         25.73087299	          0.51293313	          0.00000000	          0.20559961	          0.00000000	          0.00000000	          0.00000000	          0.00000000	          0.00000000	         -0.00000000	          0.00000000	         -1.51811812	          0.00000000	          0.00000000	          0.00000000	          0.00000000	
          1.97000000	         28.99606879	        697.71816626	         26.65469649	          0.51692371	          0.00000000	          0.20533852	          0.00000000	          0.00000000	          0.00000000	         -0.00000000	          0.00000000	          0.00000000	          0.00000000	         -1.36325152	          0.00000000	          0.00000000	         -0.00000000	          0.00000000	
          1.97500000	         29.44169594	        703.70205542	         27.46553414	          0.52129675	          0.00000000	          0.20520012	         -0.00000000	          0.00000000	          0.00000000	         -0.00000000	          0.00000000	          0.00000000	          0.00000000	         -1.23486138	          0.00000000	          0.00000000	         -0.00000000	          0.00000000	
          1.98000000	         29.88834893	        709.38927626	         27.92331609	          0.52574009	          0.00000000	          0.20513985	         -0.00000000	         -0.00000000	         -0.00000000	          0.00000000	          0.00000000	         -0.00000000	          0.00000000	         -1.12905476	          0.00000000	          0.00000000	         -0.00000000	          0.00000000	
